<svg width="32" height="20" viewBox="0 0 32 20" fill="none" xmlns="http://www.w3.org/2000/svg">
<rect width="32" height="20" fill="#EC1C24"/>
<path fill-rule="evenodd" clip-rule="evenodd" d="M19.889 13.16C18.738 14.9555 16.3415 16.088 13.834 15.3555C11.4675 14.6625 9.84202 12.3695 9.97652 9.89651C10.1075 7.41251 11.9735 5.30001 14.3985 4.87151C16.968 4.41501 19.032 5.79251 19.9135 7.23451C18.869 6.20751 17.6545 5.74501 16.2325 5.90751C15.1185 6.03551 14.1875 6.53901 13.4585 7.38901C12.0315 9.05001 12.084 11.541 13.574 13.1085C14.4285 14.0075 15.4795 14.478 16.72 14.4895C17.9595 14.4985 19.011 14.0295 19.892 13.1625" fill="white"/>
<path d="M22.115 8.19801L23.13 9.14001L24.484 8.84001L23.9005 10.1L24.605 11.2905L23.23 11.125L22.3105 12.165L22.045 10.804L20.771 10.252L21.982 9.58001L22.115 8.19801Z" fill="white"/>
</svg>
